<svg xmlns="http://www.w3.org/2000/svg" width="35.247" height="35.246" viewBox="0 0 35.247 35.246">
  <g id="グループ_76" data-name="グループ 76" transform="translate(-692 -194)">
    <g id="パス_45" data-name="パス 45" transform="translate(692 194)" fill="#fff">
      <path d="M 17.62319755554199 34.74639892578125 C 13.04942798614502 34.74639892578125 8.749417304992676 32.96527862548828 5.515267372131348 29.73112678527832 C 2.28111743927002 26.49697685241699 0.4999975562095642 22.19696807861328 0.4999975562095642 17.62319755554199 C 0.4999975562095642 13.04942798614502 2.28111743927002 8.749417304992676 5.515267372131348 5.515267372131348 C 8.749417304992676 2.28111743927002 13.04942798614502 0.4999975562095642 17.62319755554199 0.4999975562095642 C 22.19696807861328 0.4999975562095642 26.49697685241699 2.28111743927002 29.73112678527832 5.515267372131348 C 32.96527862548828 8.749417304992676 34.74639892578125 13.04942798614502 34.74639892578125 17.62319755554199 C 34.74639892578125 22.19696807861328 32.96527862548828 26.49697685241699 29.73112678527832 29.73112678527832 C 26.49697685241699 32.96527862548828 22.19696807861328 34.74639892578125 17.62319755554199 34.74639892578125 Z" stroke="none"/>
      <path d="M 17.62319755554199 0.9999961853027344 C 13.1829776763916 0.9999961853027344 9.008527755737305 2.729118347167969 5.868818283081055 5.868818283081055 C 2.729118347167969 9.008527755737305 0.9999961853027344 13.1829776763916 0.9999961853027344 17.62319755554199 C 0.9999961853027344 22.06341743469238 2.729118347167969 26.23786735534668 5.868818283081055 29.37757873535156 C 9.008527755737305 32.51727676391602 13.1829776763916 34.24639892578125 17.62319755554199 34.24639892578125 C 22.06341743469238 34.24639892578125 26.23786735534668 32.51727676391602 29.37757873535156 29.37757873535156 C 32.51727676391602 26.23786735534668 34.24639892578125 22.06341743469238 34.24639892578125 17.62319755554199 C 34.24639892578125 13.1829776763916 32.51727676391602 9.008527755737305 29.37757873535156 5.868818283081055 C 26.23786735534668 2.729118347167969 22.06341743469238 0.9999961853027344 17.62319755554199 0.9999961853027344 M 17.62319755554199 -3.814697265625e-06 C 27.35621643066406 -3.814697265625e-06 35.24639892578125 7.890176773071289 35.24639892578125 17.62319755554199 C 35.24639892578125 27.35621643066406 27.35621643066406 35.24639892578125 17.62319755554199 35.24639892578125 C 7.890176773071289 35.24639892578125 -3.814697265625e-06 27.35621643066406 -3.814697265625e-06 17.62319755554199 C -3.814697265625e-06 7.890176773071289 7.890176773071289 -3.814697265625e-06 17.62319755554199 -3.814697265625e-06 Z" stroke="none" fill="#5c82c9"/>
    </g>
    <g id="グループ_70" data-name="グループ 70" transform="translate(697.035 202.056)">
      <g id="無料の握手アイコン" transform="translate(0 0)">
        <path id="パス_35" data-name="パス 35" d="M264.778,132.188h0Z" transform="translate(-251.915 -128.467)" fill="#4b4b4b"/>
        <path id="パス_36" data-name="パス 36" d="M95.059,130.643a3.758,3.758,0,0,0,.988-2.514l-4.967-4.967a4.815,4.815,0,0,0-1.975.01,4.29,4.29,0,0,0-.471-.271,4.952,4.952,0,0,0-2.209-.474c-.039,0-.075,0-.112,0l-.921.921.144-.014a.481.481,0,0,0,.059-.01,4.149,4.149,0,0,1,.887-.087,4.22,4.22,0,0,1,1.6.3,3.8,3.8,0,0,0-.937.686l-3.134,3.134h0l-.027.026a1.132,1.132,0,0,0-.049,1.549c.015.017.032.035.049.052a1.132,1.132,0,0,0,1.6,0l1.724-1.724a3.76,3.76,0,0,0,.87.2,4.208,4.208,0,0,0,1.061-.018,7.966,7.966,0,0,0,1.148-.227l4.064,4.064.058-.052.587.587a.779.779,0,0,1-1.1,1.1.406.406,0,0,0-.575.575.779.779,0,1,1-1.1,1.1.407.407,0,0,0-.575.575.779.779,0,1,1-1.1,1.1l-.344-.344,0,0a.406.406,0,1,0-.574.575.779.779,0,1,1-1.1,1.1l-.245-.244.085-.084a1.127,1.127,0,1,0-1.593-1.594l-.085.085-.042-.042a1.12,1.12,0,0,0-1.51-1.51l-.084-.084a1.119,1.119,0,0,0-1.509-1.509l-.084-.084a1.119,1.119,0,0,0-1.509-1.509l-.407-.407-.025-.023s-.066-.056-.161-.151c-.051-.051-.113-.116-.18-.191h0l-.009-.01v0a4.5,4.5,0,0,1-.681-1,3,3,0,0,1-.267-.82l-.668.668a4.064,4.064,0,0,0,.2.506,5.284,5.284,0,0,0,.805,1.185v0l.009.01h0c.078.087.149.161.211.223.1.1.166.158.2.184l.355.355-.655.655a1.127,1.127,0,1,0,1.594,1.593,1.127,1.127,0,0,0,1.593,1.594A1.127,1.127,0,0,0,85.546,137l.654-.654h0l-.326.326a1.127,1.127,0,0,0,1.593,1.593l.326-.326.245.245a1.591,1.591,0,0,0,2.7-.928,1.592,1.592,0,0,0,2.036-1.528c0-.03,0-.059,0-.089.03,0,.059,0,.089,0a1.592,1.592,0,0,0,1.592-1.592c0-.03,0-.06,0-.089.029,0,.059,0,.089,0a1.592,1.592,0,0,0,1.126-2.718Z" transform="translate(-75.771 -119.181)" fill="#4b4b4b"/>
        <path id="パス_37" data-name="パス 37" d="M6.731,58.974,0,65.705,2.791,68.5l6.732-6.731ZM3.366,66.116a.7.7,0,1,1,0-.985A.7.7,0,0,1,3.366,66.116Z" transform="translate(0 -58.81)" fill="#4b4b4b"/>
        <path id="パス_38" data-name="パス 38" d="M318.767,55.593l-2.792,2.791,6.732,6.731,2.791-2.791Zm3.366,7.142a.7.7,0,1,1,.985,0A.7.7,0,0,1,322.132,62.735Z" transform="translate(-300.625 -55.593)" fill="#4b4b4b"/>
      </g>
    </g>
  </g>
</svg>
