<svg xmlns="http://www.w3.org/2000/svg" width="35" height="35" viewBox="0 0 35 35">
  <g id="グループ_59" data-name="グループ 59" transform="translate(-278.287 -305.287)">
    <g id="グループ_57" data-name="グループ 57" transform="translate(278.287 305.287)">
      <g id="グループ_56" data-name="グループ 56">
        <g id="グループ_55" data-name="グループ 55">
          <g id="グループ_54" data-name="グループ 54">
            <g id="グループ_1" data-name="グループ 1">
              <g id="グループ_53" data-name="グループ 53" transform="translate(0)">
                <circle id="楕円形_34" data-name="楕円形 34" cx="17.5" cy="17.5" r="17.5" transform="translate(0)" fill="#bababa"/>
                <path id="パス_1" data-name="パス 1" d="M116.793,547.238a.928.928,0,0,1-.938-.912V537.6a.928.928,0,0,1,.938-.912h8.981a.928.928,0,0,1,.938.912v3.025a1.591,1.591,0,0,1,2.338,1.268,1.483,1.483,0,0,1-2.356,1.286l.018,3.15a.928.928,0,0,1-.938.912l-3.226.006a1.5,1.5,0,0,0-1.268-2.408A1.525,1.525,0,0,0,120,547.244Z" transform="translate(-109.103 -528.9)" fill="#f7f8f9"/>
                <path id="パス_2" data-name="パス 2" d="M246.145,537.622a.928.928,0,0,1,.912-.938h8.73a.928.928,0,0,1,.912.938V546.6a.928.928,0,0,1-.912.938h-3.025a1.591,1.591,0,0,1-1.268,2.338,1.483,1.483,0,0,1-1.286-2.356l-3.15.018a.928.928,0,0,1-.912-.938l-.006-3.226a1.5,1.5,0,0,0,2.407-1.268,1.525,1.525,0,0,0-2.407-1.282Z" transform="translate(-228.72 -528.909)" fill="#050505"/>
                <path id="パス_3" data-name="パス 3" d="M126.409,650a.928.928,0,0,1-.912.938h-8.73a.928.928,0,0,1-.912-.938v-8.981a.928.928,0,0,1,.912-.938h3.025a1.591,1.591,0,0,1,1.268-2.338,1.483,1.483,0,0,1,1.286,2.356l3.15-.018a.928.928,0,0,1,.912.938l.006,3.226a1.5,1.5,0,0,0-2.407,1.268,1.525,1.525,0,0,0,2.407,1.282Z" transform="translate(-109.094 -622.106)" fill="#6f7272"/>
              </g>
            </g>
          </g>
        </g>
      </g>
    </g>
  </g>
</svg>
