<svg xmlns="http://www.w3.org/2000/svg" width="34.871" height="35.198" viewBox="0 0 34.871 35.198">
  <g id="グループ_77" data-name="グループ 77" transform="translate(-736 -193.648)">
    <g id="パス_46" data-name="パス 46" transform="translate(736 193.975)" fill="#fff">
      <path d="M 17.43520164489746 34.37040328979492 C 12.91164207458496 34.37040328979492 8.658842086791992 32.60883331298828 5.460201740264893 29.41019248962402 C 2.261571645736694 26.21156120300293 0.5000016689300537 21.9587516784668 0.5000016689300537 17.43520164489746 C 0.5000016689300537 12.91164207458496 2.261571645736694 8.658842086791992 5.460201740264893 5.460201740264893 C 8.658842086791992 2.261571645736694 12.91164207458496 0.5000016689300537 17.43520164489746 0.5000016689300537 C 21.9587516784668 0.5000016689300537 26.21156120300293 2.261571645736694 29.41019248962402 5.460201740264893 C 32.60883331298828 8.658842086791992 34.37040328979492 12.91164207458496 34.37040328979492 17.43520164489746 C 34.37040328979492 21.9587516784668 32.60883331298828 26.21155166625977 29.41019248962402 29.41019248962402 C 26.21155166625977 32.60883331298828 21.9587516784668 34.37040328979492 17.43520164489746 34.37040328979492 Z" stroke="none"/>
      <path d="M 17.43520164489746 1 C 13.04520225524902 1 8.917961120605469 2.709560394287109 5.813760757446289 5.813760757446289 C 2.709560394287109 8.917961120605469 1 13.04520225524902 1 17.43520164489746 C 1 21.82520294189453 2.709560394287109 25.95244216918945 5.813760757446289 29.056640625 C 8.917961120605469 32.16084289550781 13.04520225524902 33.87040328979492 17.43520164489746 33.87040328979492 C 21.82520294189453 33.87040328979492 25.95244216918945 32.16084289550781 29.056640625 29.056640625 C 32.16084289550781 25.95244216918945 33.87040328979492 21.82520294189453 33.87040328979492 17.43520164489746 C 33.87040328979492 13.04520225524902 32.16084289550781 8.917961120605469 29.056640625 5.813760757446289 C 25.95244216918945 2.709560394287109 21.82520294189453 1 17.43520164489746 1 M 17.43520164489746 0 C 27.06439208984375 0 34.87040328979492 7.806001663208008 34.87040328979492 17.43520164489746 C 34.87040328979492 27.06439208984375 27.06439208984375 34.87040328979492 17.43520164489746 34.87040328979492 C 7.806001663208008 34.87040328979492 0 27.06439208984375 0 17.43520164489746 C 0 7.806001663208008 7.806001663208008 0 17.43520164489746 0 Z" stroke="none" fill="#efcd11"/>
    </g>
    <g id="人物のアイコン素材_その3" data-name="人物のアイコン素材 その3" transform="translate(746.025 208.671)">
      <path id="パス_40" data-name="パス 40" d="M119.018,8.577a4.233,4.233,0,1,0-4.233-4.233A4.233,4.233,0,0,0,119.018,8.577Z" transform="translate(-111.344 -0.111)" fill="#4b4b4b"/>
      <path id="パス_41" data-name="パス 41" d="M15.1,330.4c-.9-2.757-4.189-4.259-7.426-4.259s-6.529,1.5-7.426,4.259A5.174,5.174,0,0,0,0,331.707H15.347A5.19,5.19,0,0,0,15.1,330.4Z" transform="translate(0 -316.366)" fill="#4b4b4b"/>
    </g>
    <text id="_" data-name="?" transform="matrix(0.995, 0.105, -0.105, 0.995, 758.293, 209.56)" fill="#797979" font-size="14" font-family="NotoSansJP-Bold, Noto Sans JP Bold" font-weight="700"><tspan x="0" y="0">?</tspan></text>
    <text id="_2" data-name="?" transform="translate(741.374 212.414) rotate(-25)" fill="#797979" font-size="8" font-family="NotoSansJP-Bold, Noto Sans JP Bold" font-weight="700"><tspan x="0" y="0">?</tspan></text>
  </g>
</svg>
